<?xml version="1.0" encoding="utf-8"?>
<!-- Generator: Adobe Illustrator 28.2.0, SVG Export Plug-In . SVG Version: 6.00 Build 0)  -->
<svg version="1.1" id="Layer_1" xmlns="http://www.w3.org/2000/svg" xmlns:xlink="http://www.w3.org/1999/xlink" x="0px" y="0px"
	 viewBox="0 0 413.6 109" style="enable-background:new 0 0 413.6 109;" xml:space="preserve">
<style type="text/css">
	.st0{fill:#636569;}
	.st1{fill:#005395;}
</style>
<g>
	<g>
		<path class="st0" d="M121.1,30.3V79h-8.5l0,0V57H90.4v22h-8.5V30.3h8.5v19.4h22.2V30.3l0,0H121.1z M73.3,79L73.3,79h-8.5V30.3h8.5
			V79z M56.4,79L56.4,79h-9L25.2,43.2H25V79h-8.1l0,0V30.3l0,0h9l0,0l22.2,35.9h0.1V30.3h8.1V79H56.4z M151.2,54.5L121,0H10
			C4.5,0,0,4.5,0,10v89c0,5.5,4.5,10,10,10h110.9L151.2,54.5z"/>
		<path class="st0" d="M128.5,109l30.2-54.5L128.6,0h7.5c4.1,0,9.1,3,11.1,6.6l26.5,47.9l-26.6,48c-2,3.6-7,6.6-11.1,6.6L128.5,109
			L128.5,109z"/>
		<path class="st1" d="M128.5,109l30.2-54.5L128.6,0h7.5c4.1,0,9.1,3,11.1,6.6l26.5,47.9l-26.6,48c-2,3.6-7,6.6-11.1,6.6L128.5,109
			L128.5,109z"/>
	</g>
	<g>
		<path class="st0" d="M184.5,25.8h4l9.9,15.9h0.1V25.8h3.6v21.6h-4l-9.8-15.9h-0.1v15.9h-3.6L184.5,25.8L184.5,25.8z"/>
		<path class="st0" d="M218.9,43.9c0,0.8,0.2,1.2,0.8,1.2c0.2,0,0.5,0,0.8-0.1v2.4c-0.5,0.2-1.6,0.4-2.2,0.4c-1.4,0-2.4-0.5-2.7-1.9
			c-1.4,1.3-3.6,1.9-5.4,1.9c-2.8,0-5.4-1.5-5.4-4.6c0-3.9,3.1-4.5,6-4.9c2.5-0.5,4.7-0.2,4.7-2.2c0-1.8-1.8-2.1-3.2-2.1
			c-1.9,0-3.3,0.8-3.5,2.5h-3.5c0.2-4,3.7-5.2,7.1-5.2c3.1,0,6.3,1.2,6.3,4.5v8.1H218.9z M215.4,39.6c-1.1,0.7-2.7,0.7-4.2,0.9
			s-2.8,0.8-2.8,2.6c0,1.5,2,2,3.2,2c1.5,0,3.9-0.8,3.9-3L215.4,39.6L215.4,39.6z"/>
		<path class="st0" d="M220.7,31.8h2.6v-4.7h3.5v4.7h3.1v2.6h-3.1v8.4c0,1.4,0.1,2.2,1.7,2.2c0.5,0,1,0,1.5-0.1v2.7
			c-0.8,0.1-1.5,0.2-2.2,0.2c-3.6,0-4.3-1.4-4.3-4v-9.2h-2.6v-2.8H220.7z"/>
		<path class="st0" d="M232.1,25.8h3.5v3.3h-3.5V25.8z M232.1,31.8h3.5v15.7h-3.5V31.8z"/>
		<path class="st0" d="M238.3,39.6c0-4.8,2.9-8.2,7.9-8.2s7.9,3.4,7.9,8.2s-2.9,8.3-7.9,8.3S238.3,44.4,238.3,39.6z M250.7,39.6
			c0-2.7-1.4-5.5-4.5-5.5s-4.4,2.8-4.4,5.5s1.4,5.5,4.4,5.5S250.7,42.3,250.7,39.6z"/>
		<path class="st0" d="M256.7,31.8h3.3v2.3l0.1,0.1c1-1.7,2.8-2.8,4.9-2.8c3.4,0,5.5,1.8,5.5,5.3v10.7H267v-9.8
			c-0.1-2.5-1-3.5-3.1-3.5c-2.3,0-3.8,1.8-3.8,4.1v9.2h-3.5V31.8H256.7z"/>
		<path class="st0" d="M286.9,43.9c0,0.8,0.2,1.2,0.8,1.2c0.2,0,0.5,0,0.8-0.1v2.4c-0.5,0.2-1.6,0.4-2.2,0.4c-1.4,0-2.4-0.5-2.7-1.9
			c-1.4,1.3-3.6,1.9-5.4,1.9c-2.8,0-5.4-1.5-5.4-4.6c0-3.9,3.1-4.5,6-4.9c2.5-0.5,4.7-0.2,4.7-2.2c0-1.8-1.8-2.1-3.2-2.1
			c-1.9,0-3.3,0.8-3.5,2.5h-3.5c0.2-4,3.7-5.2,7.1-5.2c3.1,0,6.3,1.2,6.3,4.5v8.1H286.9z M283.4,39.6c-1.1,0.7-2.7,0.7-4.2,0.9
			s-2.8,0.8-2.8,2.6c0,1.5,2,2,3.2,2c1.5,0,3.9-0.8,3.9-3v-2.5H283.4z"/>
		<path class="st0" d="M290.4,25.8h3.5v21.6h-3.5V25.8z"/>
		<path class="st0" d="M305.9,25.8h3.8v21.6h-3.8V25.8z"/>
		<path class="st0" d="M313.5,31.8h3.3v2.3l0.1,0.1c1-1.7,2.8-2.8,4.9-2.8c3.4,0,5.5,1.8,5.5,5.3v10.7h-3.5v-9.8
			c-0.1-2.5-1-3.5-3.1-3.5c-2.3,0-3.8,1.8-3.8,4.1v9.2h-3.5V31.8H313.5z"/>
		<path class="st0" d="M333.2,42.4c0.2,2,1.7,2.7,3.5,2.7c1.3,0,3.6-0.3,3.5-2.1s-2.6-2-5.1-2.6c-2.5-0.5-5-1.5-5-4.6
			c0-3.4,3.7-4.5,6.5-4.5c3.2,0,6.1,1.3,6.5,4.8h-3.6c-0.3-1.6-1.7-2.1-3.2-2.1c-1,0-2.8,0.2-2.8,1.6c0,1.7,2.5,1.9,5.1,2.5
			c2.5,0.6,5.1,1.5,5.1,4.6c0,3.7-3.8,5.1-7,5.1c-3.9,0-6.9-1.8-6.9-5.5L333.2,42.4L333.2,42.4z"/>
		<path class="st0" d="M344.4,31.8h2.6v-4.7h3.5v4.7h3.1v2.6h-3.1v8.4c0,1.4,0.1,2.2,1.7,2.2c0.5,0,1,0,1.5-0.1v2.7
			c-0.8,0.1-1.5,0.2-2.2,0.2c-3.6,0-4.3-1.4-4.3-4v-9.2h-2.6v-2.8H344.4z"/>
		<path class="st0" d="M355.8,25.8h3.5v3.3h-3.5V25.8z M355.8,31.8h3.5v15.7h-3.5V31.8z"/>
		<path class="st0" d="M361.1,31.8h2.6v-4.7h3.5v4.7h3.1v2.6h-3.1v8.4c0,1.4,0.1,2.2,1.7,2.2c0.5,0,1,0,1.5-0.1v2.7
			c-0.8,0.1-1.5,0.2-2.2,0.2c-3.6,0-4.3-1.4-4.3-4v-9.2h-2.6v-2.8H361.1z"/>
		<path class="st0" d="M386.2,47.4h-3.4v-2.2h-0.1c-0.8,1.6-2.7,2.6-4.5,2.6c-4.1,0-5.8-2.1-5.8-6.1v-9.9h3.5v9.6
			c0,2.8,1.1,3.8,3,3.8c2.9,0,3.8-1.8,3.8-4.3v-9.1h3.5V47.4z"/>
		<path class="st0" d="M388,31.8h2.6v-4.7h3.5v4.7h3.1v2.6H394v8.4c0,1.4,0.1,2.2,1.7,2.2c0.5,0,1,0,1.5-0.1v2.7
			c-0.8,0.1-1.5,0.2-2.2,0.2c-3.6,0-4.3-1.4-4.3-4v-9.2H388V31.8z"/>
		<path class="st0" d="M402,40.5c0,2.5,1.3,4.6,4.2,4.6c2,0,3.2-0.9,3.8-2.6h3.3c-0.8,3.4-3.7,5.3-7.1,5.3c-4.9,0-7.7-3.4-7.7-8.2
			c0-4.5,2.9-8.3,7.6-8.3c4.9,0,8,4.4,7.4,9.1L402,40.5L402,40.5z M410.1,38.2c-0.1-2.2-1.6-4.1-3.9-4.1c-2.4,0-4,1.8-4.1,4.1H410.1
			z"/>
		<path class="st0" d="M183.5,76.3c0-4.8,2.9-8.2,7.9-8.2s7.9,3.4,7.9,8.2c0,4.8-2.9,8.3-7.9,8.3C186.4,84.6,183.5,81.1,183.5,76.3z
			 M195.8,76.3c0-2.7-1.4-5.5-4.5-5.5s-4.4,2.8-4.4,5.5s1.4,5.5,4.4,5.5C194.5,81.9,195.8,79,195.8,76.3z"/>
		<path class="st0" d="M201.9,68.5h3.3v2.3l0.1,0.1c1-1.7,2.8-2.8,4.9-2.8c3.4,0,5.5,1.8,5.5,5.3v10.7h-3.5v-9.8
			c-0.1-2.5-1-3.5-3.1-3.5c-2.3,0-3.8,1.8-3.8,4.1v9.2h-3.5V68.5H201.9z"/>
		<path class="st0" d="M233.3,62.5h4l8.3,21.6h-4.1l-2-5.7h-8.6l-2,5.7H225L233.3,62.5z M232,75.6h6.6l-3.2-9.3h-0.1L232,75.6z"/>
		<path class="st0" d="M261.4,83.3c0,4.7-2.8,7-7.7,7c-3.1,0-6.7-1.2-7-4.9h3.5c0.4,2,2,2.3,3.8,2.3c2.8,0,4-1.4,4-4v-2.4h-0.1
			c-1,1.7-2.8,2.8-4.7,2.8c-5,0-7-3.8-7-8.2c0-4.2,2.6-7.8,7.1-7.8c2,0,3.8,0.8,4.6,2.6h0.1v-2.1h3.5v14.7H261.4z M257.9,76
			c0-2.7-1.2-5.2-4.2-5.2c-3.1,0-4.1,2.8-4.1,5.5c0,2.6,1.2,5.2,4.1,5.2C256.8,81.4,257.9,78.6,257.9,76z"/>
		<path class="st0" d="M264.6,62.5h3.5v3.3h-3.5V62.5z M264.6,68.5h3.5v15.7h-3.5V68.5z"/>
		<path class="st0" d="M271.5,68.5h3.3v2.3l0.1,0.1c1-1.7,2.8-2.8,4.9-2.8c3.4,0,5.5,1.8,5.5,5.3v10.7h-3.5v-9.8
			c-0.1-2.5-1-3.5-3.1-3.5c-2.3,0-3.8,1.8-3.8,4.1v9.2h-3.5V68.5H271.5z"/>
		<path class="st0" d="M303.1,83.3c0,4.7-2.8,7-7.7,7c-3.1,0-6.7-1.2-7-4.9h3.5c0.4,2,2,2.3,3.8,2.3c2.8,0,4-1.4,4-4v-2.4h-0.1
			c-1,1.7-2.8,2.8-4.7,2.8c-5,0-7-3.8-7-8.2c0-4.2,2.6-7.8,7.1-7.8c2,0,3.8,0.8,4.6,2.6h0.1v-2.1h3.5L303.1,83.3L303.1,83.3z
			 M299.6,76c0-2.7-1.2-5.2-4.2-5.2c-3.1,0-4.1,2.8-4.1,5.5c0,2.6,1.2,5.2,4.1,5.2C298.5,81.4,299.6,78.6,299.6,76z"/>
	</g>
</g>
</svg>
